<svg version="1" xmlns="http://www.w3.org/2000/svg" width="786.667" height="786.667" viewBox="0 0 590.000000 590.000000"><path d="M267 58.1C172.7 68.9 93 134.2 64.6 223.9 57.2 247.4 54 268.7 54 295c0 43 10.5 82.5 31.4 118.3 38.8 66.5 106.1 110.1 183.1 118.7 11.6 1.3 41.4 1.3 53 0 95.5-10.6 175.3-75.5 203.9-165.9 7.4-23.5 10.6-44.8 10.6-71.1 0-43-10.5-82.5-31.4-118.3C465.8 110.2 398.5 66.6 321.5 58c-10.6-1.2-43.8-1.1-54.5.1zm109.1 120.1l44.2 44.3.2 104.5c.1 57.5-.1 106.4-.3 108.8l-.5 4.2H188.5l.2-69.3c0-38 .2-70.3.3-71.7.1-2.3.2-2.3 1.7 1 2 4.2 3.3 7.4 6.8 16.5 1.5 3.8 3.2 7.5 3.7 8.2.5.7.9 21.3 1 51.2 0 36.7.3 50.1 1.2 50.3.6.1 46.7.2 102.4.3l101.2.1V227.3l-35.2-.1c-19.4 0-37.4 0-40-.1l-4.8-.1V147.3H202.2v20.4c0 11.3-.3 20.7-.6 21-.3.4-.6 0-.6-.7 0-1.6-7-19.5-11.1-28.3-1.1-2.3-1.5-11-1-23l.1-2.7h142.8l44.3 44.2zm-202.2-29.3c2.5 2 4.4 4.8 5.9 8.8 1.3 3.2 2.9 7.1 3.7 8.6.8 1.6 1.5 3.5 1.5 4.2 0 .7.7 2.6 1.5 4.2 3 5.9 5.5 12 5.5 13.4 0 .8.4 1.9.8 2.5.5.5 2.1 4 3.6 7.9 1.5 3.8 3.5 8.8 4.6 11 1 2.2 3.1 7.3 4.6 11.3 1.5 4 3.1 7.5 3.6 7.8.4.3.8 1.5.8 2.8 0 1.2.4 2.6.8 3.1.8 1 6.7 14.5 6.7 15.5 0 .3.9 2.6 1.9 5 7.3 17.1 9.3 22 13.6 33 2.2 5.8 4.5 11.4 5 12.5.5 1.1 2.1 4.9 3.5 8.5 1.4 3.6 3.3 8 4.1 9.7 2.3 5.3 4 9.4 6.4 15.8 1.2 3.3 2.9 7.3 3.6 9 .7 1.6 2.5 5.9 3.9 9.5 1.4 3.6 3.2 7.8 4 9.5 5.4 11.8 5.5 12.5 5.5 31.8 0 19.4-.1 19.7-4.8 21.2-2.5.7-1.8 1.3-18.5-16.8-7.8-8.4-12.7-15.4-12.7-18 0-.5-.7-2.5-1.6-4.5-2.9-6.5-5-11.5-7.4-17.7-2.6-6.9-4-10.2-6.7-16.5-1.1-2.5-2.6-6.2-3.2-8.2-.7-2.1-1.7-4-2.2-4.3-.5-.4-.9-1.6-.9-2.9 0-1.2-.4-2.6-.9-3.2-.5-.5-2.1-4.1-3.6-7.9-1.5-3.9-3.2-8.4-4-10-.7-1.7-2.3-5.5-3.5-8.5-1.2-3-3-7.3-4-9.5-.9-2.2-2.5-6-3.5-8.5-1.8-4.8-5-12.6-7-17.5-.7-1.7-2.2-5.3-3.3-8-4.8-12-7.4-18.1-8.3-19.7-.5-1-.9-2.3-.9-3 0-.7-.7-2.6-1.6-4.3-.8-1.6-2.6-5.9-4-9.5-1.4-3.6-3.2-7.7-4-9.2-.8-1.4-1.4-3.1-1.4-3.7 0-.6-.8-3-1.9-5.4-1.7-4-7.2-17.1-11.1-26.7-2.5-6.2-3.2-12.8-1.5-15.9 3.2-6.3 9.9-10 17.9-10.1 4.9 0 6.4.4 9.5 2.9zm128.4 41.4c-.1 9.8-.4 18.1-.7 18.4-.4.4-66.1.8-72.6.4-1.3-.1-1.5-2.7-1.4-17.9.1-9.7.2-18 .3-18.5 0-.4 16.9-.6 37.4-.5l37.2.3-.2 17.8zM383 265v6h-74c-69.7 0-74.1-.1-74.6-1.8-.3-.9-1.4-3.6-2.5-6L230 259h153v6zm0 44v6H253.2l-1.3-3.8c-.7-2-1.9-4.7-2.7-6l-1.4-2.2H383v6zm.5 65.3V402l-3.5.1c-1.9 0-25.5.1-52.4.1-40.5.1-49-.2-49.7-1.3-.5-.8-.9-3.4-.9-5.9v-4.5h94.5l.2-15.8.1-15.7-2.6-.2c-1.5-.1-24.3-.2-50.7-.3l-47.9-.1-.9-3.5c-.5-1.9-1.3-4-1.9-4.6-3-3.7-1.7-3.8 57.8-3.8h57.9v27.8z"/><path d="M342 189.5V213h23.5c12.9 0 23.5-.3 23.5-.6 0-.8-45.7-46.4-46.5-46.4-.3 0-.5 10.6-.5 23.5zM239.2 190.6l-.2 6.4h52l-.4-6.3-.4-6.2-25.4-.1-25.4-.1-.2 6.3z"/></svg>